<svg width="32" height="31" viewBox="0 0 32 31" fill="none" xmlns="http://www.w3.org/2000/svg">
<path d="M5.94183 13.3171C5.94183 12.5931 5.94183 12.2311 6.16675 12.0062C6.39166 11.7812 6.75366 11.7812 7.47765 11.7812H24.8836C25.6076 11.7812 25.9696 11.7812 26.1945 12.0062C26.4194 12.2311 26.4194 12.5931 26.4194 13.3171V24.8357C26.4194 25.9217 26.4194 26.4647 26.082 26.802C25.7446 27.1394 25.2016 27.1394 24.1157 27.1394H8.24556C7.15957 27.1394 6.61658 27.1394 6.27921 26.802C5.94183 26.4647 5.94183 25.9217 5.94183 24.8357V13.3171Z" fill="#333333" stroke="#333333" stroke-width="3.83954"/>
<path d="M21.3 10.5008V7.9411C21.3 6.13113 21.3 5.22614 20.7377 4.66385C20.1754 4.10156 19.2704 4.10156 17.4605 4.10156H14.9008C13.0908 4.10156 12.1858 4.10156 11.6235 4.66385C11.0612 5.22614 11.0612 6.13113 11.0612 7.9411V10.5008" stroke="#333333" stroke-width="1.91977" stroke-linecap="round"/>
<circle cx="16.1806" cy="19.4601" r="2.55969" fill="#333333"/>
</svg>
