<svg width="83" height="85" viewBox="0 0 83 85" fill="none" xmlns="http://www.w3.org/2000/svg">
<g filter="url(#filter0_d_141_104)">
<rect x="4" y="4" width="75" height="75.9494" rx="9.42247" fill="#F4F4F4"/>
</g>
<path d="M22.8125 36.75V58.3125C22.8125 61.0231 22.8125 62.3784 23.6546 63.2204C24.4966 64.0625 25.8519 64.0625 28.5625 64.0625H54.4375C57.1481 64.0625 58.5034 64.0625 59.3454 63.2204C60.1875 62.3784 60.1875 61.0231 60.1875 58.3125V36.75" stroke="#333333" stroke-width="2.875"/>
<path d="M48.6875 62.625V51.125C48.6875 47.9494 46.1131 45.375 42.9375 45.375H40.0625C36.8869 45.375 34.3125 47.9494 34.3125 51.125V62.625" stroke="#333333" stroke-width="2.875" stroke-linejoin="round"/>
<path d="M19.8254 25.0324C21.2741 21.652 21.9985 19.9618 23.4387 19.0122C24.8789 18.0625 26.7178 18.0625 30.3956 18.0625H52.6044C56.2822 18.0625 58.1211 18.0625 59.5613 19.0122C61.0015 19.9618 61.7259 21.652 63.1746 25.0324L65.289 29.9661C66.1285 31.9247 66.5482 32.9041 66.5812 33.6953C66.6586 35.5503 65.54 37.2466 63.8045 37.9062C63.0643 38.1875 61.9988 38.1875 59.8678 38.1875V38.1875C59.2061 38.1875 58.8752 38.1875 58.5763 38.1232C57.8858 37.9747 57.2741 37.5772 56.858 37.0065C56.6778 36.7595 56.5435 36.4572 56.2747 35.8524L53.8952 30.4986C53.0472 28.5906 52.6232 27.6366 52.3761 27.718C52.1291 27.7995 52.3555 28.8186 52.8085 30.8569L52.9854 31.653C53.6052 34.442 53.9151 35.8365 53.2928 36.8341C53.1726 37.0268 53.03 37.2046 52.868 37.3637C52.0292 38.1875 50.6006 38.1875 47.7436 38.1875V38.1875C45.6268 38.1875 44.5684 38.1875 43.8089 37.6297C43.6596 37.52 43.5212 37.3962 43.3957 37.2599C42.7574 36.5666 42.6405 35.5147 42.4068 33.4108L42.0715 30.3933C41.862 28.5084 41.7573 27.5659 41.5 27.5659C41.2427 27.5659 41.138 28.5084 40.9285 30.3933L40.5932 33.4108C40.3595 35.5147 40.2426 36.5666 39.6043 37.2599C39.4788 37.3962 39.3404 37.52 39.1911 37.6297C38.4316 38.1875 37.3732 38.1875 35.2564 38.1875V38.1875C32.3994 38.1875 30.9708 38.1875 30.132 37.3637C29.97 37.2046 29.8274 37.0268 29.7072 36.8341C29.0849 35.8365 29.3948 34.442 30.0146 31.653L30.1915 30.8569C30.6445 28.8186 30.8709 27.7995 30.6239 27.718C30.3768 27.6366 29.9528 28.5906 29.1048 30.4986L26.7253 35.8524C26.4565 36.4572 26.3222 36.7595 26.142 37.0065C25.7259 37.5772 25.1142 37.9747 24.4237 38.1232C24.1248 38.1875 23.7939 38.1875 23.1322 38.1875V38.1875C21.0012 38.1875 19.9357 38.1875 19.1955 37.9062C17.46 37.2466 16.3414 35.5503 16.4188 33.6953C16.4518 32.9041 16.8715 31.9247 17.711 29.9661L19.8254 25.0324Z" stroke="#333333" stroke-width="2.875"/>
<defs>
<filter id="filter0_d_141_104" x="0.202532" y="0.914557" width="82.5949" height="83.5442" filterUnits="userSpaceOnUse" color-interpolation-filters="sRGB">
<feFlood flood-opacity="0" result="BackgroundImageFix"/>
<feColorMatrix in="SourceAlpha" type="matrix" values="0 0 0 0 0 0 0 0 0 0 0 0 0 0 0 0 0 0 127 0" result="hardAlpha"/>
<feMorphology radius="0.237342" operator="dilate" in="SourceAlpha" result="effect1_dropShadow_141_104"/>
<feOffset dy="0.712025"/>
<feGaussianBlur stdDeviation="1.78006"/>
<feComposite in2="hardAlpha" operator="out"/>
<feColorMatrix type="matrix" values="0 0 0 0 0 0 0 0 0 0 0 0 0 0 0 0 0 0 0.25 0"/>
<feBlend mode="normal" in2="BackgroundImageFix" result="effect1_dropShadow_141_104"/>
<feBlend mode="normal" in="SourceGraphic" in2="effect1_dropShadow_141_104" result="shape"/>
</filter>
</defs>
</svg>
