<svg width="35" height="35" viewBox="0 0 35 35" fill="none" xmlns="http://www.w3.org/2000/svg">
<path d="M27.4902 8.26487C28.4469 9.69655 28.4469 11.6896 28.4469 15.6756C28.4469 19.6616 28.4469 21.6546 27.4902 23.0863C27.0761 23.7061 26.544 24.2382 25.9242 24.6524C24.6735 25.4881 22.9944 25.5937 19.9325 25.6071V25.609L18.3636 28.7467C17.8407 29.7926 16.3481 29.7926 15.8252 28.7467L14.2563 25.609V25.6071C11.1944 25.5937 9.51532 25.4881 8.26463 24.6524C7.64484 24.2382 7.11269 23.7061 6.69856 23.0863C5.74194 21.6546 5.74194 19.6616 5.74194 15.6756C5.74194 11.6896 5.74194 9.69655 6.69856 8.26487C7.11269 7.64508 7.64484 7.11293 8.26463 6.6988C9.69631 5.74219 11.6893 5.74219 15.6753 5.74219H18.5135C22.4995 5.74219 24.4925 5.74219 25.9242 6.6988C26.544 7.11293 27.0761 7.64508 27.4902 8.26487Z" stroke="#333333" stroke-width="2.27049" stroke-linecap="round" stroke-linejoin="round"/>
<path d="M12.8372 12.8379L21.3515 12.8379" stroke="#333333" stroke-width="2.27049" stroke-linecap="round" stroke-linejoin="round"/>
<path d="M12.8372 18.5137H17.0943" stroke="#333333" stroke-width="2.27049" stroke-linecap="round" stroke-linejoin="round"/>
</svg>
